<?xml version="1.0" encoding="UTF-8"?> <svg xmlns="http://www.w3.org/2000/svg" xmlns:xlink="http://www.w3.org/1999/xlink" id="Layer_1" x="0" y="0" width="432" height="432" xml:space="preserve"><style>.st0,.st1{clip-path:url(#SVGID_2_);fill:#427af4}.st1{fill:#fff}</style><defs><path id="SVGID_1_" d="M0 0h432v432H0z"></path></defs><clipPath id="SVGID_2_"><use xlink:href="#SVGID_1_" overflow="visible"></use></clipPath><path class="st0" d="M214.7 277.4c1.6-.1 3.2.3 4.7 1 2 1 3.5 2.5 4.5 4.3h.2l29 52.3c-3.8 1.3-7.6 2.3-11.6 3.2-22.2 5-44.2 3.5-64.2-3.3l28.9-52.3c1.8-3.1 5.1-5 8.5-5.2m-49.6-24.1c4.5.1 8.6 3.2 9.6 7.8.5 2.2.3 4.3-.6 6.2l.2.2-22.8 55c-21.3-13.7-38.2-34.1-47.3-59.2l58.8-10 .1.1c.7 0 1.4-.1 2-.1m99.6-.2c.8 0 1.6 0 2.3.2l.1-.1 59.3 10c-8.7 24.4-25.3 45.5-47.5 59.6l-23-55.6.1-.1c-2.1-4.9 0-10.7 4.9-13 1.2-.6 2.5-1 3.8-1m-58.8-48.7h18.3l11.4 14.2-4.1 17.8-16.4 7.9-16.5-7.9-4.1-17.8 11.4-14.2zm109.5-43.1c6.6 10.8 11.7 22.8 14.7 35.8 3 12.9 3.7 25.7 2.5 38.2L275 218.7v-.2c-5.2-1.4-8.3-6.7-7.1-11.9.5-2.2 1.6-4 3.2-5.3v-.1l44.3-39.9zm-200.9 0l44.7 40v.2c4 3.5 4.6 9.6 1.3 13.8-1.4 1.7-3.2 2.9-5.2 3.4v.2L98 235.4c-3.1-26.6 3.2-52.5 16.5-74.1m114.9-55.2c25.9 3.2 49.8 14.9 68.2 32.9L249 173.5l-.2-.1c-4.3 3.2-10.4 2.4-13.8-1.8-1.4-1.7-2.1-3.8-2.2-5.8l-3.4-59.7zm-28.5 0l-3.4 59.7-.2.1c-.2 5.3-4.6 9.6-10 9.6-2.2 0-4.3-.7-5.9-1.9h-.1l-49-34.7c15-14.8 34.3-25.7 56.5-30.8 4-.8 8-1.5 12.1-2m14.2-88.3c-6.3 0-11.4 5.7-11.4 12.6v.3c0 .9-.1 2.1 0 2.9.1 4 1 7.1 1.6 10.8 1 7.9 1.8 14.5 1.3 20.6-.5 2.3-2.2 4.4-3.7 5.9l-.3 4.8c-6.8.6-13.7 1.6-20.6 3.2-29.6 6.7-55 21.9-74.4 42.5-1.3-.9-3.5-2.4-4.1-2.9-2 .3-4.1.9-6.8-.7-5.1-3.4-9.7-8.2-15.3-13.9-2.6-2.7-4.4-5.3-7.5-8-.7-.6-1.8-1.4-2.5-2-2.4-1.9-5.2-2.9-7.9-3-3.5-.1-6.9 1.2-9.1 4-3.9 4.9-2.7 12.4 2.8 16.8.1 0 .1.1.2.1.8.6 1.7 1.4 2.4 1.9 3.2 2.4 6.2 3.6 9.4 5.5 6.8 4.2 12.5 7.7 16.9 11.9 1.7 1.9 2.1 5.1 2.3 6.6L92 141c-19.5 29.4-28.6 65.7-23.2 102.7l-4.8 1.4c-1.3 1.6-3 4.2-4.9 4.9-5.9 1.8-12.5 2.5-20.4 3.4-3.7.3-7 .1-10.9.9-.9.2-2.1.5-3 .7H24.5c-6.7 1.6-11 7.8-9.6 13.9 1.4 6.1 7.9 9.8 14.7 8.3h.2c.1 0 .1-.1.2-.1.9-.2 2.1-.4 2.9-.7 3.9-1 6.7-2.6 10.2-3.9 7.5-2.7 13.8-5 19.8-5.8 2.5-.2 5.2 1.6 6.5 2.3l5-.9c11.4 35.4 35.3 64 65.6 82l-2.1 5c.7 1.9 1.6 4.5 1 6.4-2.2 5.7-6 11.8-10.3 18.5-2.1 3.1-4.2 5.5-6.1 9.1-.5.9-1 2.2-1.5 3.1-2.9 6.3-.8 13.5 4.8 16.2 5.7 2.7 12.7-.1 15.7-6.4.4-.9 1-2.1 1.4-2.9 1.6-3.7 2.1-6.9 3.3-10.4 3-7.6 4.7-15.5 8.8-20.5 1.1-1.4 3-1.9 4.9-2.4l2.6-4.7c26.4 10.1 56 12.9 85.5 6.2 6.7-1.5 13.2-3.5 19.5-5.9.7 1.3 2.1 3.8 2.4 4.4 2 .6 4.1 1 5.8 3.5 3.1 5.3 5.2 11.6 7.8 19.1 1.1 3.6 1.7 6.7 3.3 10.4.4.8 1 2 1.4 2.9 3 6.3 10.1 9.2 15.7 6.4 5.6-2.7 7.8-9.9 4.8-16.2-.4-.9-1-2.2-1.5-3.1-1.9-3.6-4-6-6.1-9.1-4.3-6.7-7.9-12.3-10.1-18.1-.9-3 .2-4.8.9-6.7-.4-.5-1.4-3.3-1.9-4.6 31.5-18.6 54.7-48.3 65.6-82.6 1.5.2 4 .7 4.9.9 1.7-1.1 3.3-2.6 6.4-2.4 6.1.9 12.3 3.1 19.8 5.8 3.5 1.3 6.3 2.9 10.2 3.9.8.2 2 .4 2.9.6.1 0 .1.1.2.1h.2c6.8 1.5 13.3-2.2 14.7-8.3 1.4-6.1-2.9-12.2-9.6-13.9-1-.2-2.4-.6-3.3-.8-4-.7-7.2-.6-10.9-.9-8-.8-14.5-1.5-20.4-3.4-2.4-.9-4.1-3.8-4.9-4.9l-4.6-1.3c2.4-17.2 1.7-35.2-2.4-53.1-4.2-18.1-11.5-34.7-21.3-49.3 1.2-1.1 3.4-3 4-3.6.2-2 0-4.2 2.1-6.4 4.5-4.2 10.1-7.7 16.9-11.9 3.2-1.9 6.2-3.1 9.5-5.5.7-.5 1.7-1.4 2.5-2 5.5-4.4 6.7-11.9 2.8-16.8-3.9-4.9-11.5-5.4-17-1-.8.6-1.8 1.4-2.5 2-3.1 2.6-4.9 5.2-7.5 8-5.6 5.7-10.3 10.5-15.3 13.9-2.2 1.3-5.4.8-6.9.8l-4.3 3.1c-24.7-25.9-58.3-42.4-94.5-45.7-.1-1.5-.2-4.3-.3-5.1-1.5-1.4-3.3-2.6-3.7-5.7-.5-6.1.3-12.7 1.3-20.6.5-3.7 1.4-6.8 1.6-10.8v-3.2c.3-6.7-4.8-12.4-11.1-12.4"></path><path class="st0" d="M94.4 130.6h241.5v177.2H94.4z"></path><path class="st1" d="M108.2 149H322v46.7H108.2zM108.2 243.1H322v46.7H108.2z"></path><path class="st0" d="M119 173c0-6.8 5.1-12.3 12.4-12.3 4.5 0 7.1 1.5 9.3 3.7l-3.3 3.8c-1.8-1.7-3.7-2.7-6.1-2.7-4 0-6.9 3.3-6.9 7.4v.1c0 4.1 2.8 7.4 6.9 7.4 2.7 0 4.4-1.1 6.2-2.8l3.3 3.4c-2.4 2.6-5.1 4.2-9.7 4.2-6.9 0-12.1-5.4-12.1-12.2M145.9 161.1h17.9v4.6h-12.7v4.8h11.1v4.6h-11.1v5h12.8v4.7h-18zM169.4 161.1h10.8c3 0 5.3.8 6.9 2.4 1.3 1.3 2 3.2 2 5.4v.1c0 3.8-2.1 6.2-5.1 7.3l5.8 8.5h-6.1l-5.1-7.6h-4.1v7.6h-5.2v-23.7zm10.5 11.5c2.5 0 4-1.4 4-3.4v-.1c0-2.2-1.6-3.4-4.1-3.4h-5.2v6.8h5.3zM200.3 165.9H193v-4.8h19.7v4.8h-7.2v18.9h-5.2zM217.8 161.1h5.2v23.7h-5.2zM229.8 161.1h18v4.7H235v5h11.3v4.8H235v9.2h-5.2zM253 161.1h5.2v23.7H253zM265 161.1h17.9v4.6h-12.7v4.8h11.2v4.6h-11.2v5h12.9v4.7H265zM288.6 161.1h9.2c7.4 0 12.6 5.1 12.6 11.8v.1c0 6.7-5.1 11.9-12.6 11.9h-9.2v-23.8zm9.2 19c4.3 0 7.1-2.9 7.1-7.1v-.1c0-4.2-2.9-7.1-7.1-7.1h-4v14.3h4zM125.6 258.6h3.1l6.6 15.5h-3.5l-1.4-3.5h-6.5l-1.4 3.5H119l6.6-15.5zm3.5 9.1l-2-5-2 5h4zM137.7 258.7h6c4.8 0 8.2 3.3 8.2 7.7 0 4.3-3.3 7.7-8.2 7.7h-6v-15.4zm6 12.4c2.8 0 4.6-1.9 4.6-4.6 0-2.7-1.9-4.6-4.6-4.6h-2.6v9.3h2.6zM154.9 258.7h3.6l4.1 6.5 4-6.5h3.7v15.4h-3.4v-10l-4.3 6.5h-.1l-4.3-6.5v10h-3.3zM174.1 258.7h3.4v15.4h-3.4zM181.4 258.7h3.1l7.2 9.5v-9.5h3.4v15.4h-2.9l-7.5-9.8v9.8h-3.3zM198.9 258.7h3.4v15.4h-3.4zM205.1 271.9l2-2.4c1.4 1.1 2.8 1.9 4.6 1.9 1.4 0 2.2-.5 2.2-1.5 0-.9-.5-1.3-3.1-2-3.1-.8-5.1-1.7-5.1-4.7 0-2.8 2.2-4.6 5.4-4.6 2.2 0 4.2.7 5.7 2L215 263c-1.4-.9-2.7-1.5-4-1.5-1.3 0-2 .6-2 1.3 0 1 .7 1.3 3.3 2 3.1.8 4.9 1.9 4.9 4.6 0 3.1-2.3 4.8-5.7 4.8-2.2.1-4.6-.7-6.4-2.3M223.5 261.8h-4.7v-3.1h12.7v3.1h-4.6v12.3h-3.4zM234.1 258.7h7c2 0 3.5.5 4.5 1.6.9.9 1.3 2.1 1.3 3.5 0 2.5-1.3 4-3.3 4.8l3.8 5.5h-4l-3.3-4.9h-2.6v4.9h-3.4v-15.4zm6.9 7.5c1.6 0 2.6-.9 2.6-2.2 0-1.5-1-2.2-2.7-2.2h-3.4v4.4h3.5zM255.3 258.6h3.1l6.6 15.5h-3.5l-1.4-3.5h-6.5l-1.4 3.5h-3.5l6.6-15.5zm3.6 9.1l-2-5-2 5h4zM269 261.8h-4.7v-3.1h12.8v3.1h-4.7v12.3H269zM278.4 266.5c0-4.4 3.5-8 8.2-8s8.2 3.5 8.2 7.9-3.5 8-8.2 8c-4.8 0-8.2-3.6-8.2-7.9m12.8 0c0-2.7-1.9-4.9-4.7-4.9-2.7 0-4.6 2.2-4.6 4.8 0 2.6 1.9 4.8 4.7 4.8 2.7.1 4.6-2.1 4.6-4.7M297.7 258.7h7c2 0 3.5.5 4.5 1.6.9.9 1.3 2.1 1.3 3.5 0 2.5-1.3 4-3.3 4.8l3.8 5.5h-4l-3.3-4.9h-2.6v4.9h-3.4v-15.4zm6.9 7.5c1.7 0 2.6-.9 2.6-2.2 0-1.5-1-2.2-2.7-2.2h-3.4v4.4h3.5z"></path><path class="st1" d="M116 220c.6-.7 1.2-1.3 1.8-2l1.8-2.1c.6-.7 1.1-1.4 1.6-2 .5-.6 1-1.2 1.3-1.6h7c-1.4 1.7-2.8 3.3-4.1 4.8-1.3 1.5-2.8 3.1-4.4 4.7.8.7 1.6 1.6 2.5 2.6s1.7 2.1 2.5 3.2 1.5 2.2 2.2 3.3c.7 1.1 1.2 2.1 1.7 3h-6.8c-.4-.7-.9-1.5-1.4-2.4-.5-.9-1.1-1.7-1.7-2.6-.6-.9-1.2-1.7-1.9-2.5s-1.3-1.5-2-2v9.5H110v-30.8l5.9-1V220zM150.5 233c-1 .3-2.3.6-3.9.8-1.6.3-3.3.4-5 .4-1.8 0-3.2-.2-4.4-.7-1.2-.5-2.1-1.2-2.8-2.1-.7-.9-1.2-1.9-1.5-3.2-.3-1.2-.4-2.6-.4-4.1v-12h5.9v11.3c0 2 .3 3.4.8 4.3.5.9 1.4 1.3 2.8 1.3.4 0 .9 0 1.3-.1.5 0 .9-.1 1.3-.1v-16.6h5.9V233zM175.4 223c0 1.7-.2 3.3-.7 4.7-.5 1.4-1.2 2.6-2.1 3.6-.9 1-2.1 1.7-3.4 2.3-1.4.5-2.9.8-4.6.8-.7 0-1.5 0-2.2-.1-.8-.1-1.5-.2-2.3-.3-.8-.1-1.5-.2-2.2-.4-.7-.1-1.3-.3-1.8-.5V203l5.9-1v10.7c.7-.3 1.4-.5 2.1-.7.7-.2 1.5-.2 2.3-.2 1.5 0 2.8.3 3.9.8s2.1 1.3 2.9 2.3c.8 1 1.4 2.2 1.7 3.5.3 1.4.5 2.9.5 4.6m-6-.2c0-3.9-1.4-5.9-4.2-5.9-.6 0-1.2.1-1.8.2-.6.2-1.1.4-1.4.6v11.1c.3.1.7.1 1.1.1.5 0 .9.1 1.5.1 1.6 0 2.8-.6 3.7-1.7.7-1.1 1.1-2.6 1.1-4.5M179 223.2c0-1.9.3-3.6.9-5 .6-1.4 1.3-2.6 2.2-3.6.9-1 2-1.7 3.2-2.2 1.2-.5 2.4-.7 3.7-.7 3 0 5.3.9 7 2.8 1.7 1.9 2.6 4.6 2.6 8.3v1.2c0 .4-.1.8-.1 1.1h-13.4c.1 1.3.7 2.3 1.7 3 1 .7 2.4 1.1 4 1.1 1.1 0 2.1-.1 3.2-.3 1-.2 1.9-.5 2.6-.8l.8 5c-.3.2-.7.3-1.3.5-.5.2-1.1.3-1.8.4-.6.1-1.3.2-2.1.3-.7.1-1.5.1-2.2.1-1.9 0-3.5-.3-4.9-.9-1.4-.6-2.5-1.4-3.5-2.4-.9-1-1.6-2.2-2-3.5-.4-1.4-.6-2.9-.6-4.4m13.9-2.4c0-.5-.1-1-.3-1.5-.1-.5-.4-.9-.7-1.3-.3-.4-.7-.7-1.2-.9-.5-.2-1-.4-1.7-.4s-1.2.1-1.7.3c-.5.2-.9.5-1.2.9-.3.4-.6.8-.7 1.3-.2.5-.3 1-.4 1.5h7.9zM215.8 217.6c-.5-.1-1.2-.3-1.9-.4-.7-.1-1.5-.2-2.3-.2-.4 0-.8 0-1.3.1s-.9.1-1.2.2v16.5h-5.9v-20.4c1.1-.4 2.3-.7 3.8-1.1 1.4-.3 3.1-.5 4.8-.5.3 0 .7 0 1.2.1.5 0 .9.1 1.4.2.4.1.9.2 1.3.2l1.2.3-1.1 5zM219.9 212.9c1-.3 2.3-.6 3.9-.8 1.6-.3 3.3-.4 5-.4 1.8 0 3.2.2 4.4.7 1.2.5 2.1 1.2 2.8 2s1.2 1.9 1.5 3.1c.3 1.2.4 2.5.4 4v12.2H232v-11.4c0-2-.3-3.4-.8-4.2-.5-.8-1.4-1.2-2.8-1.2-.4 0-.9 0-1.3.1s-.9.1-1.3.1v16.6h-5.9v-20.8zM242.3 223.2c0-1.9.3-3.6.9-5 .6-1.4 1.3-2.6 2.2-3.6.9-1 2-1.7 3.2-2.2 1.2-.5 2.4-.7 3.7-.7 3 0 5.3.9 7 2.8s2.6 4.6 2.6 8.3v1.2c0 .4-.1.8-.1 1.1h-13.4c.1 1.3.7 2.3 1.7 3 1 .7 2.4 1.1 4 1.1 1.1 0 2.1-.1 3.2-.3 1-.2 1.9-.5 2.6-.8l.8 5c-.3.2-.7.3-1.3.5-.5.2-1.1.3-1.8.4s-1.3.2-2.1.3-1.5.1-2.2.1c-1.9 0-3.5-.3-4.9-.9-1.4-.6-2.5-1.4-3.5-2.4-.9-1-1.6-2.2-2-3.5-.4-1.4-.6-2.9-.6-4.4m13.9-2.4c0-.5-.1-1-.3-1.5s-.4-.9-.7-1.3c-.3-.4-.7-.7-1.2-.9-.5-.2-1-.4-1.7-.4s-1.2.1-1.7.3c-.5.2-.9.5-1.2.9s-.6.8-.7 1.3c-.2.5-.3 1-.4 1.5h7.9zM266.3 206.8l5.9-1v6.4h7.1v5.1h-7.1v7.6c0 1.3.2 2.3.7 3.1.4.8 1.3 1.1 2.6 1.1.6 0 1.3-.1 2-.2s1.3-.3 1.8-.5l.8 4.8c-.7.3-1.5.6-2.4.8-.9.2-1.9.3-3.2.3-1.6 0-3-.2-4-.7-1.1-.5-1.9-1.1-2.5-1.9-.6-.8-1.1-1.8-1.3-2.9-.3-1.1-.4-2.4-.4-3.8v-18.2zM282.3 223.2c0-1.9.3-3.6.9-5 .6-1.4 1.3-2.6 2.2-3.6.9-1 2-1.7 3.2-2.2 1.2-.5 2.4-.7 3.7-.7 3 0 5.3.9 7 2.8s2.6 4.6 2.6 8.3v1.2c0 .4-.1.8-.1 1.1h-13.4c.1 1.3.7 2.3 1.7 3 1 .7 2.4 1.1 4 1.1 1.1 0 2.1-.1 3.2-.3 1-.2 1.9-.5 2.6-.8l.8 5c-.3.2-.7.3-1.3.5-.5.2-1.1.3-1.8.4s-1.3.2-2.1.3-1.5.1-2.2.1c-1.9 0-3.5-.3-4.9-.9-1.4-.6-2.5-1.4-3.5-2.4-.9-1-1.6-2.2-2-3.5-.4-1.4-.6-2.9-.6-4.4m13.9-2.4c0-.5-.1-1-.3-1.5s-.4-.9-.7-1.3c-.3-.4-.7-.7-1.2-.9-.5-.2-1-.4-1.7-.4s-1.2.1-1.7.3c-.5.2-.9.5-1.2.9s-.6.8-.7 1.3c-.2.5-.3 1-.4 1.5h7.9zM312.5 229.4c1.1 0 1.9-.1 2.3-.3s.7-.6.7-1.3c0-.5-.3-.9-.9-1.3-.6-.4-1.5-.8-2.7-1.3-.9-.4-1.8-.7-2.5-1.1-.8-.4-1.4-.8-1.9-1.4-.5-.5-.9-1.2-1.2-1.9-.3-.7-.4-1.6-.4-2.7 0-2 .7-3.6 2.2-4.8 1.5-1.2 3.5-1.8 6-1.8 1.3 0 2.5.1 3.7.3 1.2.2 2.1.5 2.8.8l-1 4.8c-.7-.2-1.4-.5-2.2-.7-.8-.2-1.7-.3-2.7-.3-1.9 0-2.8.5-2.8 1.6 0 .2 0 .5.1.7.1.2.2.4.5.6.2.2.6.4 1 .6.4.2.9.4 1.6.7 1.3.5 2.4 1 3.2 1.5.8.5 1.5 1 2 1.6s.8 1.2 1 1.9c.2.7.3 1.5.3 2.4 0 2.1-.8 3.7-2.3 4.8-1.5 1.1-3.7 1.6-6.6 1.6-1.9 0-3.4-.2-4.6-.5s-2.1-.6-2.6-.8l1-5c1 .4 2 .7 3.1 1s1.9.3 2.9.3"></path></svg> 